<?xml version="1.0" encoding="UTF-8"?>
<svg version="1.1" xmlns="http://www.w3.org/2000/svg" width="225" height="225">
<path d="M0 0 C1.171875 2.96875 1.171875 2.96875 2 6 C3.28215566 7.78356206 3.28215566 7.78356206 4.8125 9.25 C12.41401206 17.66927864 15.47474834 27.9682997 15.2578125 39.125 C14.71165318 45.21550395 13.08389015 50.87236378 10.3125 56.3125 C8.77015202 58.9510108 8.77015202 58.9510108 9.0625 62 C8.97975342 65.97183607 7.36361672 67.89775305 5 71 C7.97 71.33 10.94 71.66 14 72 C14 72.33 14 72.66 14 73 C-13.56080946 75.63117033 -41.48213753 76.57955935 -69 73 C-69 72.67 -69 72.34 -69 72 C-68.21625 71.87625 -67.4325 71.7525 -66.625 71.625 C-63.85942178 71.20882007 -63.85942178 71.20882007 -62 69 C-60.515 68.505 -60.515 68.505 -59 68 C-60.15242188 67.27103516 -60.15242188 67.27103516 -61.328125 66.52734375 C-64.85130878 63.19474155 -65.57902344 60.16388777 -66.75 55.5625 C-66.95753906 54.81162109 -67.16507812 54.06074219 -67.37890625 53.28710938 C-71.35727911 38.69546439 -70.77695099 26.24410736 -63.3125 12.6875 C-57.05662779 3.02931132 -47.67423958 -3.44048175 -36.5625 -6.3125 C-24.44857303 -8.55581981 -10.49941131 -6.74845158 0 0 Z M-51 8 C-58.20545707 17.75857178 -61.08227921 25.83788734 -60 38 C-58.2297563 46.80092747 -55.07463787 55.73450714 -48.015625 61.66796875 C-45.47838789 63.34470878 -42.90411108 64.14196718 -40 65 C-41.98 65 -43.96 65 -46 65 C-45.30955793 67.01076589 -45.30955793 67.01076589 -44 69 C-37.32746523 71.78174245 -29.22490178 71.31327093 -22.125 71.25 C-21.07376953 71.24613281 -20.02253906 71.24226563 -18.93945312 71.23828125 C-11.78651097 71.1584592 -4.97104046 70.71218538 2 69 C2.495 67.515 2.495 67.515 3 66 C-0.63 66 -4.26 66 -8 66 C-5.36 65.67 -2.72 65.34 0 65 C-2.57669012 62.96012032 -5.24587557 61.24313778 -8.0625 59.5625 C-12.37649293 56.87823773 -14.31625189 54.55397297 -16.375 49.875 C-17.75757047 46.81268627 -17.75757047 46.81268627 -20.6875 45.625 C-21.450625 45.41875 -22.21375 45.2125 -23 45 C-23 45.66 -23 46.32 -23 47 C-32.77254826 47.7701658 -32.77254826 47.7701658 -37.1875 45 C-39.6780861 40.8776506 -39.53075052 38.7767547 -39 34 C-38.16426575 31.35350822 -37.5645913 30.39730499 -35.3125 28.8125 C-33 28 -33 28 -29.66015625 27.78125 C-25.06641628 26.80072919 -23.95874204 25.36563993 -21.125 21.6875 C-20.71008301 21.15785645 -20.29516602 20.62821289 -19.86767578 20.08251953 C-18.55959572 18.40197593 -17.28030339 16.70176073 -16 15 C-15.12129358 13.86732284 -14.24110227 12.73579594 -13.359375 11.60546875 C-8.96429064 6.76679068 -8.96429064 6.76679068 -7 1 C-22.5859044 -6.39670039 -39.16574813 -5.08502646 -51 8 Z M-4 2 C-3.67 2.66 -3.34 3.32 -3 4 C-2.67 3.34 -2.34 2.68 -2 2 C-2.66 2 -3.32 2 -4 2 Z M-6 5 C-5 7 -5 7 -5 7 Z M-3 7 C-2.0022242 9.99332739 -1.2477975 10.94766315 1 13 C0.67 13.99 0.34 14.98 0 16 C-0.66 16 -1.32 16 -2 16 C-2 16.99 -2 17.98 -2 19 C-1.01 19 -0.02 19 1 19 C1 19.66 1 20.32 1 21 C1.99 21.33 2.98 21.66 4 22 C4.99 21.01 5.98 20.02 7 19 C5.53289058 14.15853891 2.6487256 10.44051028 -1 7 C-1.66 7 -2.32 7 -3 7 Z M7 19 C8 21 8 21 8 21 Z M8 21 C9 23 9 23 9 23 Z M9 23 C10 25 10 25 10 25 Z M10 26 C11 29 11 29 11 29 Z M-27 31 C-26.01 33.31 -25.02 35.62 -24 38 C-23.67 37.34 -23.34 36.68 -23 36 C-22.34 36 -21.68 36 -21 36 C-20.67 36.66 -20.34 37.32 -20 38 C-20.57452746 34.06924356 -20.57452746 34.06924356 -23 31 C-24.32 31 -25.64 31 -27 31 Z M11 31 C12 35 12 35 12 35 Z M-31 32 C-30 34 -30 34 -30 34 Z M-32 38 C-31 40 -31 40 -31 40 Z " fill="#030303" transform="translate(140,67)"/>
<path d="M0 0 C0.433125 0.66 0.86625 1.32 1.3125 2 C1.869375 2.66 2.42625 3.32 3 4 C3.99 4 4.98 4 6 4 C6.33 4.66 6.66 5.32 7 6 C8.65 6 10.3 6 12 6 C14.61156692 12.38930522 15.46651605 18.79606388 15.9375 25.625 C16.00702881 26.42397705 16.07655762 27.2229541 16.14819336 28.04614258 C16.46133719 33.78750745 15.45896073 38.29843418 12 43 C8.70666377 44.3996679 6.3542503 44.11808343 3 43 C3 42.34 3 41.68 3 41 C2.2575 40.7525 1.515 40.505 0.75 40.25 C-3.60646155 38.26979021 -5.52870593 36.22536458 -7.25 31.75 C-7.4975 30.8425 -7.745 29.935 -8 29 C-9.65 28.67 -11.3 28.34 -13 28 C-13.13277344 27.24074219 -13.26554687 26.48148438 -13.40234375 25.69921875 C-13.66724609 24.20841797 -13.66724609 24.20841797 -13.9375 22.6875 C-14.11152344 21.70136719 -14.28554687 20.71523437 -14.46484375 19.69921875 C-14.95746847 16.91810787 -14.95746847 16.91810787 -16 14 C-18.01508358 13.26676204 -18.01508358 13.26676204 -20 13 C-19.34 11.68 -18.68 10.36 -18 9 C-17.34 9.33 -16.68 9.66 -16 10 C-16.33 10.99 -16.66 11.98 -17 13 C-16.34 13 -15.68 13 -15 13 C-14.67 12.01 -14.34 11.02 -14 10 C-11.6015625 8.28125 -11.6015625 8.28125 -8.625 6.5 C-5.39654898 4.55781838 -2.52489505 2.81688972 0 0 Z " fill="#151515" transform="translate(135,83)"/>
<path d="M0 0 C2.125 0.9375 2.125 0.9375 4 2 C3.56429687 2.40089844 3.12859375 2.80179687 2.6796875 3.21484375 C-6.1236284 11.61800893 -9.69503554 18.35799302 -10.23828125 30.48046875 C-10.48047779 41.0891238 -9.84499666 50.31000669 -5 60 C-9.19238905 61.39746302 -11.10701803 59.84031875 -15 58 C-17 57 -17 57 -17.81640625 55.109375 C-18.06261719 54.33078125 -18.30882813 53.5521875 -18.5625 52.75 C-18.81128906 51.98171875 -19.06007813 51.2134375 -19.31640625 50.421875 C-22.96899199 37.48128553 -20.77081232 25.41680259 -14.3125 13.6875 C-10.80887545 8.20356593 -5.88424794 2.94212397 0 0 Z " fill="#111111" transform="translate(91,66)"/>
<path d="M0 0 C1.32 0.33 2.64 0.66 4 1 C4.66 4.3 5.32 7.6 6 11 C6.99 11 7.98 11 9 11 C9 11.99 9 12.98 9 14 C9.66 14 10.32 14 11 14 C9.47793991 11.37098712 8.15634036 9.15634036 6 7 C5.75 4.5 5.75 4.5 6 2 C6.66 1.34 7.32 0.68 8 0 C9.67542976 0.28604898 11.34385343 0.61781233 13 1 C13.33 0.67 13.66 0.34 14 0 C16.67058851 -0.14115161 19.32432238 -0.04247107 22 0 C22 0.99 22 1.98 22 3 C21.34 3 20.68 3 20 3 C20 7.62 20 12.24 20 17 C19.01 17 18.02 17 17 17 C17 12.38 17 7.76 17 3 C16.01 3 15.02 3 14 3 C14 3.66 14 4.32 14 5 C13.01 5 12.02 5 11 5 C11 4.34 11 3.68 11 3 C10.34 3 9.68 3 9 3 C9.3609375 3.44730469 9.721875 3.89460937 10.09375 4.35546875 C13.8916157 9.30324379 13.8916157 9.30324379 14.4375 12.8125 C14 15 14 15 12 17 C10.328451 16.69208308 8.66194453 16.35613097 7 16 C4.76832815 16.36856864 4.76832815 16.36856864 3 17 C3 16.01 3 15.02 3 14 C2.01 14 1.02 14 0 14 C0 14.99 0 15.98 0 17 C-0.99 17 -1.98 17 -3 17 C-2.22095672 5.47835991 -2.22095672 5.47835991 0 0 Z M1 6 C1 7.65 1 9.3 1 11 C1.33 11 1.66 11 2 11 C2 9.35 2 7.7 2 6 C1.67 6 1.34 6 1 6 Z " fill="#020202" transform="translate(76,148)"/>
<path d="M0 0 C1.32 0.33 2.64 0.66 4 1 C4.33 2.98 4.66 4.96 5 7 C5.33 4.69 5.66 2.38 6 0 C6.5775 0.185625 7.155 0.37125 7.75 0.5625 C10.30393357 1.2238169 10.30393357 1.2238169 14 0 C14 5.28 14 10.56 14 16 C9.73286566 16.71118906 7.08766667 17 3 17 C3 16.01 3 15.02 3 14 C2.01 14 1.02 14 0 14 C0 14.99 0 15.98 0 17 C-0.99 17 -1.98 17 -3 17 C-2.22095672 5.47835991 -2.22095672 5.47835991 0 0 Z M1 7 C2 11 2 11 2 11 Z " fill="#010101" transform="translate(129,148)"/>
<path d="M0 0 C0.99 0.33 1.98 0.66 3 1 C3.33 0.67 3.66 0.34 4 0 C4.66 0.33 5.32 0.66 6 1 C6 1.66 6 2.32 6 3 C6.99 2.67 7.98 2.34 9 2 C9.33 2.99 9.66 3.98 10 5 C10.78375 4.95875 11.5675 4.9175 12.375 4.875 C15 5 15 5 17 7 C19.65537372 7.56520003 22.29144713 7.73788198 25 8 C25 8.33 25 8.66 25 9 C-2.05696203 10.6835443 -2.05696203 10.6835443 -13 9 C-13 8.67 -13 8.34 -13 8 C-12.21625 7.87625 -11.4325 7.7525 -10.625 7.625 C-7.85942178 7.20882007 -7.85942178 7.20882007 -6 5 C-5.34 4.87625 -4.68 4.7525 -4 4.625 C-1.79734983 4.17876824 -1.79734983 4.17876824 -0.75 1.9375 C-0.37875 0.9784375 -0.37875 0.9784375 0 0 Z " fill="#111111" transform="translate(84,131)"/>
<path d="M0 0 C2.475 0.495 2.475 0.495 5 1 C5.99 0.67 6.98 0.34 8 0 C8 5.61 8 11.22 8 17 C7.01 17 6.02 17 5 17 C4.67 16.01 4.34 15.02 4 14 C3.67 14.99 3.34 15.98 3 17 C2.01 17 1.02 17 0 17 C0 11.39 0 5.78 0 0 Z M5 3 C6 7 6 7 6 7 Z " fill="#030303" transform="translate(117,148)"/>
<path d="M0 0 C1.98 0 3.96 0 6 0 C8 2 8 2 8.1953125 5.4765625 C8.18201493 6.85950968 8.15816232 8.24238654 8.125 9.625 C8.11597656 10.33140625 8.10695313 11.0378125 8.09765625 11.765625 C8.07407603 13.51056098 8.03820461 15.25532295 8 17 C7.01 17 6.02 17 5 17 C5 14.69 5 12.38 5 10 C4.34 10 3.68 10 3 10 C3 12.31 3 14.62 3 17 C2.01 17 1.02 17 0 17 C0 11.39 0 5.78 0 0 Z M3 3 C3 4.32 3 5.64 3 7 C3.66 7 4.32 7 5 7 C5 5.68 5 4.36 5 3 C4.34 3 3.68 3 3 3 Z " fill="#020202" transform="translate(99,148)"/>
<path d="M0 0 C4.55555556 0.55555556 4.55555556 0.55555556 6 2 C6.12537741 4.14307896 6.17574364 6.29078886 6.1875 8.4375 C6.20167969 9.61183594 6.21585938 10.78617188 6.23046875 11.99609375 C6 15 6 15 4 17 C-0.55555556 16.44444444 -0.55555556 16.44444444 -2 15 C-2.12537741 12.85692104 -2.17574364 10.70921114 -2.1875 8.5625 C-2.20167969 7.38816406 -2.21585937 6.21382812 -2.23046875 5.00390625 C-2 2 -2 2 0 0 Z M1 3 C1 6.63 1 10.26 1 14 C1.66 14 2.32 14 3 14 C3 10.37 3 6.74 3 3 C2.34 3 1.68 3 1 3 Z " fill="#010101" transform="translate(110,148)"/>
<path d="M0 0 C2.64 0 5.28 0 8 0 C8 0.99 8 1.98 8 3 C7.34 3 6.68 3 6 3 C6 7.29 6 11.58 6 16 C4.68 16 3.36 16 2 16 C2 11.71 2 7.42 2 3 C1.34 3 0.68 3 0 3 C0 2.01 0 1.02 0 0 Z " fill="#000000" transform="translate(144,148)"/>
<path d="M0 0 C2.9375 1.25 2.9375 1.25 6 3 C6.69140625 5.109375 6.69140625 5.109375 7 7 C0.55929529 7.10655578 -5.62641289 6.96205088 -12 6 C-12 5.67 -12 5.34 -12 5 C-11.21625 4.87625 -10.4325 4.7525 -9.625 4.625 C-6.85942178 4.20882007 -6.85942178 4.20882007 -5 2 C-2.375 1.875 -2.375 1.875 0 2 C0 1.34 0 0.68 0 0 Z " fill="#040203" transform="translate(83,134)"/>
<path d="M0 0 C-0.99 0.495 -0.99 0.495 -2 1 C-2.33 1.66 -2.66 2.32 -3 3 C-3.66 2.67 -4.32 2.34 -5 2 C-5.66 3.32 -6.32 4.64 -7 6 C-7.66 6 -8.32 6 -9 6 C-9.33 8.31 -9.66 10.62 -10 13 C-10.66 13 -11.32 13 -12 13 C-12.2120464 8.54702569 -11.72718916 5.12606298 -10 1 C-6.78548731 -0.60725635 -3.56387464 -0.05748185 0 0 Z " fill="#090808" transform="translate(113,95)"/>
<path d="M0 0 C3 2 3 2 4 5 C6.01508358 5.73323796 6.01508358 5.73323796 8 6 C7.01 6.99 6.02 7.98 5 9 C1.85808576 7.46395304 -1.08596738 5.94268841 -4 4 C-2.68 2.68 -1.36 1.36 0 0 Z " fill="#0A0909" transform="translate(120,106)"/>
<path d="M0 0 C0 0.99 0 1.98 0 3 C-1.57421875 4.359375 -1.57421875 4.359375 -3.6875 5.75 C-7.85392853 8.69536156 -10.26035406 11.71930323 -13 16 C-13.66 15.67 -14.32 15.34 -15 15 C-10.64547089 8.87644344 -6.27864722 4.15858452 0 0 Z " fill="#020202" transform="translate(91,66)"/>
<path d="M0 0 C0.99 0.33 1.98 0.66 3 1 C3.33 0.67 3.66 0.34 4 0 C4.66 0.33 5.32 0.66 6 1 C6.625 4.0625 6.625 4.0625 7 7 C5.88625 6.5359375 5.88625 6.5359375 4.75 6.0625 C2.49307824 5.1905075 0.3549847 4.52332993 -2 4 C-1.34 2.68 -0.68 1.36 0 0 Z " fill="#100E0F" transform="translate(84,131)"/>
<path d="M0 0 C3.625 -0.1875 3.625 -0.1875 7 0 C6.01 0.495 6.01 0.495 5 1 C4.67 1.66 4.34 2.32 4 3 C3.34 2.67 2.68 2.34 2 2 C1.34 3.32 0.68 4.64 0 6 C0 5.34 0 4.68 0 4 C-0.66 3.67 -1.32 3.34 -2 3 C-1.34 2.01 -0.68 1.02 0 0 Z " fill="#100E0F" transform="translate(106,95)"/>
<path d="M0 0 C0.66 0.33 1.32 0.66 2 1 C1.67 1.99 1.34 2.98 1 4 C1.66 4.33 2.32 4.66 3 5 C1.35 4.67 -0.3 4.34 -2 4 C-1.34 2.68 -0.68 1.36 0 0 Z M4 1 C4 4 4 4 4 4 Z " fill="#0F0F0F" transform="translate(117,92)"/>
<path d="M0 0 C-0.99 0.495 -0.99 0.495 -2 1 C-2.33 1.66 -2.66 2.32 -3 3 C-3.99 3.33 -4.98 3.66 -6 4 C-6.66 3.67 -7.32 3.34 -8 3 C-8 2.34 -8 1.68 -8 1 C-5.29120665 -0.35439668 -2.99066732 -0.06501451 0 0 Z " fill="#0B0B0B" transform="translate(101,64)"/>
</svg>
